<?xml version="1.0" encoding="UTF-8" standalone="no"?>
<!DOCTYPE svg PUBLIC "-//W3C//DTD SVG 1.1//EN"
"http://www.w3.org/Graphics/SVG/1.1/DTD/svg11.dtd">
<!-- Generated by graphviz version 2.34.0 (20140110.0949)
-->
<!-- Title: G Pages: 1 -->
<svg width="100%" height="100%" 
viewBox="0.00 0.00 322.00 638.61" xmlns="http://www.w3.org/2000/svg" xmlns:xlink="http://www.w3.org/1999/xlink">
<g id="graph0" class="graph" transform="scale(1 1) rotate(0) translate(4 634.613)">
<title>G</title>
<script type="application/ecmascript" xlink:href="/ode_svg.js"></script>
<polygon fill="white" stroke="white" points="-4,4 -4,-634.613 318,-634.613 318,4 -4,4"/>
<!-- Gene_18445 -->
<g id="node1" class="node"><title>Gene_18445</title>
<g id="a_node1"><a xlink:href="/index.php?action=search&amp;searchwhat=2&amp;q=Htra1" xlink:title="Htra1" target="_parent">
<ellipse fill="none" stroke="green" cx="28" cy="-478.613" rx="27" ry="18"/>
<text text-anchor="middle" x="28" y="-476.113" font-family="DejaVu Sans" font-size="10.00">Htra1</text>
</a>
</g>
</g>
<!-- Gene_21296 -->
<g id="node2" class="node"><title>Gene_21296</title>
<g id="a_node2"><a xlink:href="/index.php?action=search&amp;searchwhat=2&amp;q=Cpne1" xlink:title="Cpne1" target="_parent">
<ellipse fill="none" stroke="green" cx="28" cy="-220.613" rx="27.8353" ry="18"/>
<text text-anchor="middle" x="28" y="-218.113" font-family="DejaVu Sans" font-size="10.00">Cpne1</text>
</a>
</g>
</g>
<!-- Gene_5033 -->
<g id="node3" class="node"><title>Gene_5033</title>
<g id="a_node3"><a xlink:href="/index.php?action=search&amp;searchwhat=2&amp;q=Snrk" xlink:title="Snrk" target="_parent">
<ellipse fill="none" stroke="green" cx="28" cy="-274.613" rx="27" ry="18"/>
<text text-anchor="middle" x="28" y="-272.113" font-family="DejaVu Sans" font-size="10.00">Snrk</text>
</a>
</g>
</g>
<!-- Gene_5058 -->
<g id="node4" class="node"><title>Gene_5058</title>
<g id="a_node4"><a xlink:href="/index.php?action=search&amp;searchwhat=2&amp;q=Btg2" xlink:title="Btg2" target="_parent">
<ellipse fill="none" stroke="green" cx="28" cy="-112.613" rx="27" ry="18"/>
<text text-anchor="middle" x="28" y="-110.113" font-family="DejaVu Sans" font-size="10.00">Btg2</text>
</a>
</g>
</g>
<!-- Gene_5075 -->
<g id="node5" class="node"><title>Gene_5075</title>
<g id="a_node5"><a xlink:href="/index.php?action=search&amp;searchwhat=2&amp;q=Rgs4" xlink:title="Rgs4" target="_parent">
<ellipse fill="none" stroke="green" cx="28" cy="-166.613" rx="27" ry="18"/>
<text text-anchor="middle" x="28" y="-164.113" font-family="DejaVu Sans" font-size="10.00">Rgs4</text>
</a>
</g>
</g>
<!-- GeneSet_0 -->
<g id="node6" class="node"><title>GeneSet_0</title>
<g id="a_node6"><a xlink:href="/index.php?action=manage&amp;cmd=viewgeneset&amp;gs_id=5" xlink:title="NTX_NA_B6D2" target="_parent">
<polygon fill="#33a02c" stroke="black" points="291,-78.613 205,-78.613 205,-42.613 291,-42.613 291,-78.613"/>
<text text-anchor="middle" x="248" y="-58.113" font-family="DejaVu Sans" font-size="10.00">NTX_NA_B6D2</text>
</a>
</g>
</g>
<!-- GeneSet_0&#45;&gt;Gene_18445 -->
<g id="edge4" class="edge"><title>GeneSet_0&#45;&gt;Gene_18445</title>
<path fill="none" stroke="#33a02c" d="M235.785,-78.7818C209.256,-122.084 141.185,-235.116 92,-333.613 71.8176,-374.03 51.5448,-422.415 39.6407,-451.815"/>
<polygon fill="#33a02c" stroke="#33a02c" points="36.2788,-450.794 35.793,-461.378 42.7728,-453.407 36.2788,-450.794"/>
</g>
<!-- GeneSet_0&#45;&gt;Gene_21296 -->
<g id="edge7" class="edge"><title>GeneSet_0&#45;&gt;Gene_21296</title>
<path fill="none" stroke="#33a02c" d="M204.972,-55.9576C170.708,-54.5373 123.065,-58.303 92,-84.613 53.0683,-117.585 82.7621,-150.177 56,-193.613 54.9307,-195.348 53.7287,-197.057 52.4414,-198.719"/>
<polygon fill="#33a02c" stroke="#33a02c" points="49.5096,-196.751 45.5122,-206.563 54.7558,-201.386 49.5096,-196.751"/>
</g>
<!-- GeneSet_0&#45;&gt;Gene_5033 -->
<g id="edge10" class="edge"><title>GeneSet_0&#45;&gt;Gene_5033</title>
<path fill="none" stroke="#33a02c" d="M228.585,-78.6899C188.664,-117.879 94.2811,-210.53 51.1717,-252.848"/>
<polygon fill="#33a02c" stroke="#33a02c" points="48.6684,-250.401 43.984,-259.904 53.5721,-255.396 48.6684,-250.401"/>
</g>
<!-- GeneSet_0&#45;&gt;Gene_5058 -->
<g id="edge13" class="edge"><title>GeneSet_0&#45;&gt;Gene_5058</title>
<path fill="none" stroke="#33a02c" d="M225.381,-42.5612C194.409,-19.0339 136.265,16.3259 92,-8.61299 63.2268,-24.8238 46.093,-60.0612 37.1182,-85.0163"/>
<polygon fill="#33a02c" stroke="#33a02c" points="33.7422,-84.0747 33.8642,-94.6688 40.3754,-86.3109 33.7422,-84.0747"/>
</g>
<!-- GeneSet_0&#45;&gt;Gene_5075 -->
<g id="edge16" class="edge"><title>GeneSet_0&#45;&gt;Gene_5075</title>
<path fill="none" stroke="#33a02c" d="M204.79,-43.0606C171.324,-32.1655 124.876,-24.086 92,-46.613 55.4377,-71.6658 80.1918,-102.475 56,-139.613 54.8874,-141.321 53.6525,-143.008 52.3407,-144.655"/>
<polygon fill="#33a02c" stroke="#33a02c" points="49.4145,-142.676 45.352,-152.461 54.6298,-147.346 49.4145,-142.676"/>
</g>
<!-- GeneSet_1 -->
<g id="node7" class="node"><title>GeneSet_1</title>
<g id="a_node7"><a xlink:href="/index.php?action=manage&amp;cmd=viewgeneset&amp;gs_id=4" xlink:title="NTX_PFC_B6D2" target="_parent">
<polygon fill="#fb9a99" stroke="black" points="293,-420.613 203,-420.613 203,-384.613 293,-384.613 293,-420.613"/>
<text text-anchor="middle" x="248" y="-400.113" font-family="DejaVu Sans" font-size="10.00">NTX_PFC_B6D2</text>
</a>
</g>
</g>
<!-- GeneSet_1&#45;&gt;Gene_18445 -->
<g id="edge5" class="edge"><title>GeneSet_1&#45;&gt;Gene_18445</title>
<path fill="none" stroke="#fb9a99" d="M233.707,-420.679C216.367,-442.549 183.751,-478.234 146,-492.613 118.734,-502.999 85.5331,-497.467 61.4739,-490.53"/>
<polygon fill="#fb9a99" stroke="#fb9a99" points="62.3546,-487.138 51.7664,-487.513 60.2772,-493.823 62.3546,-487.138"/>
</g>
<!-- GeneSet_1&#45;&gt;Gene_21296 -->
<g id="edge8" class="edge"><title>GeneSet_1&#45;&gt;Gene_21296</title>
<path fill="none" stroke="#fb9a99" d="M202.879,-407.753C168.551,-409.21 121.879,-405.251 92,-378.613 46.93,-338.432 86.3572,-299.807 56,-247.613 54.9751,-245.851 53.8069,-244.123 52.5446,-242.445"/>
<polygon fill="#fb9a99" stroke="#fb9a99" points="54.8852,-239.804 45.6764,-234.565 49.6081,-244.403 54.8852,-239.804"/>
</g>
<!-- GeneSet_1&#45;&gt;Gene_5033 -->
<g id="edge11" class="edge"><title>GeneSet_1&#45;&gt;Gene_5033</title>
<path fill="none" stroke="#fb9a99" d="M202.685,-420.488C169.583,-430.744 124.617,-437.825 92,-416.613 53.3392,-391.47 38.2175,-336.562 32.4378,-302.869"/>
<polygon fill="#fb9a99" stroke="#fb9a99" points="35.8586,-302.088 30.8715,-292.74 28.9408,-303.157 35.8586,-302.088"/>
</g>
<!-- GeneSet_1&#45;&gt;Gene_5058 -->
<g id="edge14" class="edge"><title>GeneSet_1&#45;&gt;Gene_5058</title>
<path fill="none" stroke="#fb9a99" d="M235.184,-384.341C206.525,-340.495 130.205,-226.513 56,-139.613 54.531,-137.893 52.9739,-136.151 51.3782,-134.425"/>
<polygon fill="#fb9a99" stroke="#fb9a99" points="53.7478,-131.84 44.2898,-127.065 48.7059,-136.696 53.7478,-131.84"/>
</g>
<!-- GeneSet_1&#45;&gt;Gene_5075 -->
<g id="edge17" class="edge"><title>GeneSet_1&#45;&gt;Gene_5075</title>
<path fill="none" stroke="#fb9a99" d="M202.89,-396.185C167.86,-388.764 120.225,-373.105 92,-340.613 47.8889,-289.833 89.0001,-252.226 56,-193.613 54.9999,-191.837 53.8505,-190.098 52.6021,-188.412"/>
<polygon fill="#fb9a99" stroke="#fb9a99" points="54.9574,-185.785 45.768,-180.512 49.6634,-190.365 54.9574,-185.785"/>
</g>
<!-- GeneSet_2 -->
<g id="node8" class="node"><title>GeneSet_2</title>
<g id="a_node8"><a xlink:href="/index.php?action=manage&amp;cmd=viewgeneset&amp;gs_id=391" xlink:title="Riken CBL Development" target="_parent">
<polygon fill="#e31a1c" stroke="black" points="313.5,-230.613 182.5,-230.613 182.5,-194.613 313.5,-194.613 313.5,-230.613"/>
<text text-anchor="middle" x="248" y="-210.113" font-family="DejaVu Sans" font-size="10.00">Riken CBL Development</text>
</a>
</g>
</g>
<!-- GeneSet_2&#45;&gt;Gene_18445 -->
<g id="edge6" class="edge"><title>GeneSet_2&#45;&gt;Gene_18445</title>
<path fill="none" stroke="#e31a1c" d="M232.102,-230.792C193.681,-277.671 91.2579,-402.647 48.3419,-455.012"/>
<polygon fill="#e31a1c" stroke="#e31a1c" points="45.6157,-452.817 41.984,-462.77 51.0298,-457.254 45.6157,-452.817"/>
</g>
<!-- GeneSet_2&#45;&gt;Gene_21296 -->
<g id="edge9" class="edge"><title>GeneSet_2&#45;&gt;Gene_21296</title>
<path fill="none" stroke="#e31a1c" d="M182.091,-214.995C144.145,-216.387 97.6246,-218.095 65.8919,-219.259"/>
<polygon fill="#e31a1c" stroke="#e31a1c" points="65.596,-215.768 55.7311,-219.632 65.8527,-222.763 65.596,-215.768"/>
</g>
<!-- GeneSet_2&#45;&gt;Gene_5033 -->
<g id="edge12" class="edge"><title>GeneSet_2&#45;&gt;Gene_5033</title>
<path fill="none" stroke="#e31a1c" d="M183.256,-230.742C143.915,-241.931 95.011,-255.839 62.9477,-264.958"/>
<polygon fill="#e31a1c" stroke="#e31a1c" points="61.8238,-261.639 53.1627,-267.741 63.7388,-268.372 61.8238,-261.639"/>
</g>
<!-- GeneSet_2&#45;&gt;Gene_5058 -->
<g id="edge15" class="edge"><title>GeneSet_2&#45;&gt;Gene_5058</title>
<path fill="none" stroke="#e31a1c" d="M207.415,-194.455C165.02,-175.008 98.6331,-144.555 59.9155,-126.794"/>
<polygon fill="#e31a1c" stroke="#e31a1c" points="61.2483,-123.555 50.6997,-122.567 58.3297,-129.918 61.2483,-123.555"/>
</g>
<!-- GeneSet_2&#45;&gt;Gene_5075 -->
<g id="edge18" class="edge"><title>GeneSet_2&#45;&gt;Gene_5075</title>
<path fill="none" stroke="#e31a1c" d="M182.395,-198.981C143.698,-190.815 95.998,-180.75 64.1604,-174.032"/>
<polygon fill="#e31a1c" stroke="#e31a1c" points="64.5146,-170.53 54.0074,-171.89 63.0693,-177.379 64.5146,-170.53"/>
</g>
<!-- r0 -->
<!-- r3 -->
<!-- r0&#45;&gt;r3 -->
<!-- r1 -->
<!-- r2 -->
<!-- r1&#45;&gt;r2 -->
<!-- r2&#45;&gt;r0 -->
</g>
<rect id="zoomhi" fill-opacity="0" width="1.0" height="1.0" />
</svg>
