<?xml version="1.0" encoding="UTF-8" standalone="no"?>
<!DOCTYPE svg PUBLIC "-//W3C//DTD SVG 1.1//EN"
"http://www.w3.org/Graphics/SVG/1.1/DTD/svg11.dtd">
<!-- Generated by graphviz version 2.34.0 (20140110.0949)
-->
<!-- Title: G Pages: 1 -->
<svg width="100%" height="100%" 
viewBox="0.00 0.00 336.00 611.00" xmlns="http://www.w3.org/2000/svg" xmlns:xlink="http://www.w3.org/1999/xlink">
<g id="graph0" class="graph" transform="scale(1 1) rotate(0) translate(4 607)">
<title>G</title>
<script type="application/ecmascript" xlink:href="/ode_svg.js"></script>
<polygon fill="white" stroke="white" points="-4,4 -4,-607 332,-607 332,4 -4,4"/>
<!-- Gene_836 -->
<g id="node1" class="node"><title>Gene_836</title>
<g id="a_node1"><a xlink:href="/index.php?action=search&amp;searchwhat=2&amp;q=Gabrb3" xlink:title="Gabrb3" target="_parent">
<ellipse fill="none" stroke="green" cx="31" cy="-504" rx="30.7213" ry="18"/>
<text text-anchor="middle" x="31" y="-501.5" font-family="DejaVu Sans" font-size="10.00">Gabrb3</text>
</a>
</g>
</g>
<!-- Gene_H46791 -->
<g id="node2" class="node"><title>Gene_H46791</title>
<g id="a_node2"><a xlink:href="/index.php?action=search&amp;searchwhat=2&amp;q=Dynlt1c" xlink:title="Dynlt1c" target="_parent">
<ellipse fill="none" stroke="green" cx="297" cy="-261" rx="31.3996" ry="18"/>
<text text-anchor="middle" x="297" y="-258.5" font-family="DejaVu Sans" font-size="10.00">Dynlt1c</text>
</a>
</g>
</g>
<!-- Gene_4225 -->
<g id="node3" class="node"><title>Gene_4225</title>
<g id="a_node3"><a xlink:href="/index.php?action=search&amp;searchwhat=2&amp;q=Spock1" xlink:title="Spock1" target="_parent">
<ellipse fill="none" stroke="green" cx="31" cy="-450" rx="30.7213" ry="18"/>
<text text-anchor="middle" x="31" y="-447.5" font-family="DejaVu Sans" font-size="10.00">Spock1</text>
</a>
</g>
</g>
<!-- Gene_20841 -->
<g id="node4" class="node"><title>Gene_20841</title>
<g id="a_node4"><a xlink:href="/index.php?action=search&amp;searchwhat=2&amp;q=Ormdl1" xlink:title="Ormdl1" target="_parent">
<ellipse fill="none" stroke="green" cx="31" cy="-396" rx="30.7213" ry="18"/>
<text text-anchor="middle" x="31" y="-393.5" font-family="DejaVu Sans" font-size="10.00">Ormdl1</text>
</a>
</g>
</g>
<!-- Gene_21011 -->
<g id="node5" class="node"><title>Gene_21011</title>
<g id="a_node5"><a xlink:href="/index.php?action=search&amp;searchwhat=2&amp;q=Herc1" xlink:title="Herc1" target="_parent">
<ellipse fill="none" stroke="green" cx="31" cy="-288" rx="27" ry="18"/>
<text text-anchor="middle" x="31" y="-285.5" font-family="DejaVu Sans" font-size="10.00">Herc1</text>
</a>
</g>
</g>
<!-- Gene_4643 -->
<g id="node6" class="node"><title>Gene_4643</title>
<g id="a_node6"><a xlink:href="/index.php?action=search&amp;searchwhat=2&amp;q=Cdh9" xlink:title="Cdh9" target="_parent">
<ellipse fill="none" stroke="green" cx="31" cy="-342" rx="27" ry="18"/>
<text text-anchor="middle" x="31" y="-339.5" font-family="DejaVu Sans" font-size="10.00">Cdh9</text>
</a>
</g>
</g>
<!-- Gene_5005 -->
<g id="node7" class="node"><title>Gene_5005</title>
<g id="a_node7"><a xlink:href="/index.php?action=search&amp;searchwhat=2&amp;q=Zik1" xlink:title="Zik1" target="_parent">
<ellipse fill="none" stroke="green" cx="31" cy="-234" rx="27" ry="18"/>
<text text-anchor="middle" x="31" y="-231.5" font-family="DejaVu Sans" font-size="10.00">Zik1</text>
</a>
</g>
</g>
<!-- Gene_5122 -->
<g id="node8" class="node"><title>Gene_5122</title>
<g id="a_node8"><a xlink:href="/index.php?action=search&amp;searchwhat=2&amp;q=Macf1" xlink:title="Macf1" target="_parent">
<ellipse fill="none" stroke="green" cx="31" cy="-180" rx="27" ry="18"/>
<text text-anchor="middle" x="31" y="-177.5" font-family="DejaVu Sans" font-size="10.00">Macf1</text>
</a>
</g>
</g>
<!-- Gene_8921 -->
<g id="node9" class="node"><title>Gene_8921</title>
<g id="a_node9"><a xlink:href="/index.php?action=search&amp;searchwhat=2&amp;q=Rbms1" xlink:title="Rbms1" target="_parent">
<ellipse fill="none" stroke="green" cx="31" cy="-126" rx="29.3664" ry="18"/>
<text text-anchor="middle" x="31" y="-123.5" font-family="DejaVu Sans" font-size="10.00">Rbms1</text>
</a>
</g>
</g>
<!-- Gene_5864 -->
<g id="node10" class="node"><title>Gene_5864</title>
<g id="a_node10"><a xlink:href="/index.php?action=search&amp;searchwhat=2&amp;q=Reep1" xlink:title="Reep1" target="_parent">
<ellipse fill="none" stroke="green" cx="31" cy="-72" rx="27.1572" ry="18"/>
<text text-anchor="middle" x="31" y="-69.5" font-family="DejaVu Sans" font-size="10.00">Reep1</text>
</a>
</g>
</g>
<!-- Gene_5915 -->
<g id="node11" class="node"><title>Gene_5915</title>
<g id="a_node11"><a xlink:href="/index.php?action=search&amp;searchwhat=2&amp;q=Myt1l" xlink:title="Myt1l" target="_parent">
<ellipse fill="none" stroke="green" cx="31" cy="-18" rx="27" ry="18"/>
<text text-anchor="middle" x="31" y="-15.5" font-family="DejaVu Sans" font-size="10.00">Myt1l</text>
</a>
</g>
</g>
<!-- GeneSet_0 -->
<g id="node12" class="node"><title>GeneSet_0</title>
<g id="a_node12"><a xlink:href="/index.php?action=manage&amp;cmd=viewgeneset&amp;gs_id=391" xlink:title="Riken CBL Development" target="_parent">
<polygon fill="#33a02c" stroke="black" points="229.5,-414 98.5,-414 98.5,-378 229.5,-378 229.5,-414"/>
<text text-anchor="middle" x="164" y="-393.5" font-family="DejaVu Sans" font-size="10.00">Riken CBL Development</text>
</a>
</g>
</g>
<!-- GeneSet_0&#45;&gt;Gene_836 -->
<g id="edge4" class="edge"><title>GeneSet_0&#45;&gt;Gene_836</title>
<path fill="none" stroke="#33a02c" d="M140.808,-414.296C117.713,-433.336 81.6031,-463.106 57.3875,-483.07"/>
<polygon fill="#33a02c" stroke="#33a02c" points="55.1567,-480.373 49.6672,-489.435 59.6096,-485.774 55.1567,-480.373"/>
</g>
<!-- GeneSet_0&#45;&gt;Gene_H46791 -->
<g id="edge6" class="edge"><title>GeneSet_0&#45;&gt;Gene_H46791</title>
<path fill="none" stroke="#33a02c" d="M182.667,-377.793C206.186,-353.556 247.795,-310.676 273.524,-284.163"/>
<polygon fill="#33a02c" stroke="#33a02c" points="276.194,-286.437 280.646,-276.823 271.17,-281.562 276.194,-286.437"/>
</g>
<!-- GeneSet_0&#45;&gt;Gene_4225 -->
<g id="edge9" class="edge"><title>GeneSet_0&#45;&gt;Gene_4225</title>
<path fill="none" stroke="#33a02c" d="M119.113,-414.091C101.876,-421.196 82.3908,-429.228 66.226,-435.892"/>
<polygon fill="#33a02c" stroke="#33a02c" points="64.5515,-432.796 56.6401,-439.843 67.2193,-439.268 64.5515,-432.796"/>
</g>
<!-- GeneSet_0&#45;&gt;Gene_20841 -->
<g id="edge11" class="edge"><title>GeneSet_0&#45;&gt;Gene_20841</title>
<path fill="none" stroke="#33a02c" d="M98.365,-396C89.3478,-396 80.3087,-396 71.9316,-396"/>
<polygon fill="#33a02c" stroke="#33a02c" points="71.726,-392.5 61.7259,-396 71.7259,-399.5 71.726,-392.5"/>
</g>
<!-- GeneSet_0&#45;&gt;Gene_4643 -->
<g id="edge15" class="edge"><title>GeneSet_0&#45;&gt;Gene_4643</title>
<path fill="none" stroke="#33a02c" d="M119.084,-377.897C100.979,-370.434 80.3973,-361.95 63.7899,-355.104"/>
<polygon fill="#33a02c" stroke="#33a02c" points="65.0989,-351.858 54.5197,-351.283 62.4311,-358.33 65.0989,-351.858"/>
</g>
<!-- GeneSet_1 -->
<g id="node13" class="node"><title>GeneSet_1</title>
<g id="a_node13"><a xlink:href="/index.php?action=manage&amp;cmd=viewgeneset&amp;gs_id=394" xlink:title="INI" target="_parent">
<polygon fill="#fb9a99" stroke="black" points="191,-198 137,-198 137,-162 191,-162 191,-198"/>
<text text-anchor="middle" x="164" y="-177.5" font-family="DejaVu Sans" font-size="10.00">INI</text>
</a>
</g>
</g>
<!-- GeneSet_1&#45;&gt;Gene_H46791 -->
<g id="edge7" class="edge"><title>GeneSet_1&#45;&gt;Gene_H46791</title>
<path fill="none" stroke="#fb9a99" d="M191.195,-196.197C212.947,-209.647 243.877,-228.771 266.498,-242.758"/>
<polygon fill="#fb9a99" stroke="#fb9a99" points="264.68,-245.749 275.026,-248.032 268.362,-239.796 264.68,-245.749"/>
</g>
<!-- GeneSet_1&#45;&gt;Gene_21011 -->
<g id="edge13" class="edge"><title>GeneSet_1&#45;&gt;Gene_21011</title>
<path fill="none" stroke="#fb9a99" d="M140.866,-198.248C117.523,-217.493 80.8361,-247.738 56.6017,-267.718"/>
<polygon fill="#fb9a99" stroke="#fb9a99" points="54.0807,-265.26 48.5912,-274.322 58.5336,-270.661 54.0807,-265.26"/>
</g>
<!-- GeneSet_1&#45;&gt;Gene_5005 -->
<g id="edge17" class="edge"><title>GeneSet_1&#45;&gt;Gene_5005</title>
<path fill="none" stroke="#fb9a99" d="M136.722,-190.832C115.739,-199.482 86.2558,-211.635 63.9169,-220.843"/>
<polygon fill="#fb9a99" stroke="#fb9a99" points="62.4311,-217.67 54.5197,-224.717 65.0989,-224.142 62.4311,-217.67"/>
</g>
<!-- GeneSet_1&#45;&gt;Gene_5122 -->
<g id="edge19" class="edge"><title>GeneSet_1&#45;&gt;Gene_5122</title>
<path fill="none" stroke="#fb9a99" d="M136.85,-180C117.227,-180 90.116,-180 68.3782,-180"/>
<polygon fill="#fb9a99" stroke="#fb9a99" points="68.195,-176.5 58.195,-180 68.1949,-183.5 68.195,-176.5"/>
</g>
<!-- GeneSet_1&#45;&gt;Gene_8921 -->
<g id="edge21" class="edge"><title>GeneSet_1&#45;&gt;Gene_8921</title>
<path fill="none" stroke="#fb9a99" d="M136.755,-169.181C116.137,-160.682 87.2958,-148.794 65.0948,-139.642"/>
<polygon fill="#fb9a99" stroke="#fb9a99" points="66.3023,-136.354 55.7231,-135.779 63.6345,-142.826 66.3023,-136.354"/>
</g>
<!-- GeneSet_1&#45;&gt;Gene_5864 -->
<g id="edge23" class="edge"><title>GeneSet_1&#45;&gt;Gene_5864</title>
<path fill="none" stroke="#fb9a99" d="M140.965,-161.834C117.719,-142.669 81.1591,-112.528 56.8882,-92.5185"/>
<polygon fill="#fb9a99" stroke="#fb9a99" points="58.8001,-89.5587 48.8578,-85.898 54.3473,-94.9598 58.8001,-89.5587"/>
</g>
<!-- GeneSet_1&#45;&gt;Gene_5915 -->
<g id="edge25" class="edge"><title>GeneSet_1&#45;&gt;Gene_5915</title>
<path fill="none" stroke="#fb9a99" d="M150.975,-161.656C133.03,-134.84 97.5323,-83.9028 62,-45 60.222,-43.0534 58.3186,-41.0957 56.3651,-39.1723"/>
<polygon fill="#fb9a99" stroke="#fb9a99" points="58.429,-36.3094 48.7415,-32.0197 53.6395,-41.4144 58.429,-36.3094"/>
</g>
<!-- GeneSet_2 -->
<g id="node14" class="node"><title>GeneSet_2</title>
<g id="a_node14"><a xlink:href="/index.php?action=manage&amp;cmd=viewgeneset&amp;gs_id=395" xlink:title="X" target="_parent">
<polygon fill="#e31a1c" stroke="black" points="191,-279 137,-279 137,-243 191,-243 191,-279"/>
<text text-anchor="middle" x="164" y="-258.5" font-family="DejaVu Sans" font-size="10.00">X</text>
</a>
</g>
</g>
<!-- GeneSet_2&#45;&gt;Gene_836 -->
<g id="edge5" class="edge"><title>GeneSet_2&#45;&gt;Gene_836</title>
<path fill="none" stroke="#e31a1c" d="M150.439,-279.049C136.295,-299.961 113.294,-335.808 98,-369 76.8267,-414.953 89.7224,-434.674 62,-477 60.7522,-478.905 59.3378,-480.762 57.8191,-482.551"/>
<polygon fill="#e31a1c" stroke="#e31a1c" points="55.1322,-480.294 50.6868,-489.912 60.1593,-485.166 55.1322,-480.294"/>
</g>
<!-- GeneSet_2&#45;&gt;Gene_H46791 -->
<g id="edge8" class="edge"><title>GeneSet_2&#45;&gt;Gene_H46791</title>
<path fill="none" stroke="#e31a1c" d="M191.195,-261C209.591,-261 234.551,-261 255.497,-261"/>
<polygon fill="#e31a1c" stroke="#e31a1c" points="255.72,-264.5 265.72,-261 255.72,-257.5 255.72,-264.5"/>
</g>
<!-- GeneSet_2&#45;&gt;Gene_4225 -->
<g id="edge10" class="edge"><title>GeneSet_2&#45;&gt;Gene_4225</title>
<path fill="none" stroke="#e31a1c" d="M152.144,-279.041C128.304,-318.567 72.647,-410.301 62,-423 60.5003,-424.789 58.8829,-426.569 57.2038,-428.313"/>
<polygon fill="#e31a1c" stroke="#e31a1c" points="54.3817,-426.173 49.6216,-435.638 59.2454,-431.207 54.3817,-426.173"/>
</g>
<!-- GeneSet_2&#45;&gt;Gene_20841 -->
<g id="edge12" class="edge"><title>GeneSet_2&#45;&gt;Gene_20841</title>
<path fill="none" stroke="#e31a1c" d="M147.011,-279.028C127.47,-300.84 93.1526,-338.437 62,-369 60.2056,-370.76 58.3249,-372.558 56.4175,-374.347"/>
<polygon fill="#e31a1c" stroke="#e31a1c" points="54.0493,-371.77 49.0534,-381.113 58.7853,-376.924 54.0493,-371.77"/>
</g>
<!-- GeneSet_2&#45;&gt;Gene_21011 -->
<g id="edge14" class="edge"><title>GeneSet_2&#45;&gt;Gene_21011</title>
<path fill="none" stroke="#e31a1c" d="M136.798,-266.4C116.725,-270.538 88.8409,-276.285 66.8814,-280.811"/>
<polygon fill="#e31a1c" stroke="#e31a1c" points="66.036,-277.411 56.9484,-282.858 67.4491,-284.267 66.036,-277.411"/>
</g>
<!-- GeneSet_2&#45;&gt;Gene_4643 -->
<g id="edge16" class="edge"><title>GeneSet_2&#45;&gt;Gene_4643</title>
<path fill="none" stroke="#e31a1c" d="M136.8,-277.2C114.516,-290.978 82.6041,-310.71 59.8588,-324.774"/>
<polygon fill="#e31a1c" stroke="#e31a1c" points="57.9942,-321.812 51.3295,-330.048 61.6756,-327.766 57.9942,-321.812"/>
</g>
<!-- GeneSet_2&#45;&gt;Gene_5005 -->
<g id="edge18" class="edge"><title>GeneSet_2&#45;&gt;Gene_5005</title>
<path fill="none" stroke="#e31a1c" d="M136.798,-255.6C116.725,-251.462 88.8409,-245.715 66.8814,-241.189"/>
<polygon fill="#e31a1c" stroke="#e31a1c" points="67.4491,-237.733 56.9484,-239.142 66.036,-244.589 67.4491,-237.733"/>
</g>
<!-- GeneSet_2&#45;&gt;Gene_5122 -->
<g id="edge20" class="edge"><title>GeneSet_2&#45;&gt;Gene_5122</title>
<path fill="none" stroke="#e31a1c" d="M136.8,-244.8C114.516,-231.022 82.6041,-211.29 59.8588,-197.226"/>
<polygon fill="#e31a1c" stroke="#e31a1c" points="61.6756,-194.234 51.3295,-191.952 57.9942,-200.188 61.6756,-194.234"/>
</g>
<!-- GeneSet_2&#45;&gt;Gene_8921 -->
<g id="edge22" class="edge"><title>GeneSet_2&#45;&gt;Gene_8921</title>
<path fill="none" stroke="#e31a1c" d="M137.744,-242.796C125.046,-232.981 109.875,-220.195 98,-207 78.7047,-185.56 80.8671,-174.818 62,-153 60.3156,-151.052 58.4966,-149.107 56.6163,-147.204"/>
<polygon fill="#e31a1c" stroke="#e31a1c" points="58.8714,-144.519 49.2159,-140.157 54.0442,-149.588 58.8714,-144.519"/>
</g>
<!-- GeneSet_2&#45;&gt;Gene_5864 -->
<g id="edge24" class="edge"><title>GeneSet_2&#45;&gt;Gene_5864</title>
<path fill="none" stroke="#e31a1c" d="M136.843,-244.481C123.587,-234.945 108.184,-221.897 98,-207 69.4452,-165.231 89.7224,-141.326 62,-99 60.5555,-96.7945 58.8875,-94.6541 57.093,-92.6073"/>
<polygon fill="#e31a1c" stroke="#e31a1c" points="59.2873,-89.8508 49.7498,-85.2371 54.3285,-94.7915 59.2873,-89.8508"/>
</g>
<!-- GeneSet_2&#45;&gt;Gene_5915 -->
<g id="edge26" class="edge"><title>GeneSet_2&#45;&gt;Gene_5915</title>
<path fill="none" stroke="#e31a1c" d="M136.865,-245.347C123.277,-235.894 107.556,-222.652 98,-207 59.5667,-144.049 99.1797,-108.7 62,-45 60.671,-42.723 59.0846,-40.5322 57.3453,-38.4513"/>
<polygon fill="#e31a1c" stroke="#e31a1c" points="59.5867,-35.7366 50.0992,-31.0209 54.5752,-40.6238 59.5867,-35.7366"/>
</g>
<!-- r0 -->
<!-- r3 -->
<!-- r0&#45;&gt;r3 -->
<!-- r1 -->
<!-- r2 -->
<!-- r1&#45;&gt;r2 -->
<!-- r2&#45;&gt;r0 -->
</g>
<rect id="zoomhi" fill-opacity="0" width="1.0" height="1.0" />
</svg>
