<?xml version="1.0" encoding="UTF-8" standalone="no"?>
<!DOCTYPE svg PUBLIC "-//W3C//DTD SVG 1.1//EN"
"http://www.w3.org/Graphics/SVG/1.1/DTD/svg11.dtd">
<!-- Generated by graphviz version 2.34.0 (20140110.0949)
-->
<!-- Title: G Pages: 1 -->
<svg width="365pt" height="490pt"
viewBox="0.00 0.00 365.00 490.00" xmlns="http://www.w3.org/2000/svg" xmlns:xlink="http://www.w3.org/1999/xlink">
<g id="graph0" class="graph" transform="scale(1 1) rotate(0) translate(4 486)">
<title>G</title>
<script type="application/ecmascript" xlink:href="/ode_svg.js"></script>
<polygon fill="white" stroke="white" points="-4,4 -4,-486 361,-486 361,4 -4,4"/>
<!-- Ph_node_1 -->
<g id="node1" class="node"><title>Ph_node_1</title>
<g id="a_node1"><a xlink:href="/index.php?action=manage&amp;cmd=viewgeneset&amp;gs_id=391&amp;homology=Included" xlink:title="GS391: Riken CBL Development&#xA;&#xA; 1 publication&#xA;(1581 genes)" target="_parent">
<polygon fill="#ccffcc" stroke="black" points="160.25,-53.5 -0.25,-53.5 -0.25,-0.5 160.25,-0.5 160.25,-53.5"/>
<text text-anchor="middle" x="80" y="-41.5" font-family="Helvetica, Arial, sans-serif" font-size="10.00">GS391: Riken CBL Development</text>
<text text-anchor="middle" x="80" y="-18.5" font-family="Helvetica, Arial, sans-serif" font-size="10.00"> 1 publication</text>
<text text-anchor="middle" x="80" y="-7.5" font-family="Helvetica, Arial, sans-serif" font-size="10.00">(1581 genes)</text>
</a>
</g>
</g>
<!-- Ph_node_4 -->
<g id="node2" class="node"><title>Ph_node_4</title>
<g id="a_node2"><a xlink:href="/index.php?action=manage&amp;cmd=viewgeneset&amp;gs_id=394&amp;homology=Included" xlink:title="GS394: INI&#xA;&#xA; 0 publications&#xA;(23 genes)" target="_parent">
<polygon fill="#ccffcc" stroke="black" points="357,-53.5 277,-53.5 277,-0.5 357,-0.5 357,-53.5"/>
<text text-anchor="middle" x="317" y="-41.5" font-family="Helvetica, Arial, sans-serif" font-size="10.00">GS394: INI</text>
<text text-anchor="middle" x="317" y="-18.5" font-family="Helvetica, Arial, sans-serif" font-size="10.00"> 0 publications</text>
<text text-anchor="middle" x="317" y="-7.5" font-family="Helvetica, Arial, sans-serif" font-size="10.00">(23 genes)</text>
</a>
</g>
</g>
<!-- Ph_node_6 -->
<g id="node3" class="node"><title>Ph_node_6</title>
<g id="a_node3"><a xlink:href="/index.php?action=manage&amp;cmd=viewgeneset&amp;gs_id=395&amp;homology=Included" xlink:title="GS395: X&#xA;&#xA; 0 publications&#xA;(37 genes)" target="_parent">
<polygon fill="#ccffcc" stroke="black" points="259,-53.5 179,-53.5 179,-0.5 259,-0.5 259,-53.5"/>
<text text-anchor="middle" x="219" y="-41.5" font-family="Helvetica, Arial, sans-serif" font-size="10.00">GS395: X</text>
<text text-anchor="middle" x="219" y="-18.5" font-family="Helvetica, Arial, sans-serif" font-size="10.00"> 0 publications</text>
<text text-anchor="middle" x="219" y="-7.5" font-family="Helvetica, Arial, sans-serif" font-size="10.00">(37 genes)</text>
</a>
</g>
</g>
<!-- Ph_node_3 -->
<g id="node4" class="node"><title>Ph_node_3</title>
<g id="a_node4"><a xlink:href="/index.php?action=analyze&amp;cmd=intersection&amp;gsids=391,395&amp;homology=Included" xlink:title="GS391: Riken CBL Development&#xA;GS395: X&#xA;&#xA; 1 publication&#xA;(5 genes)" target="_parent">
<polygon fill="#ccffcc" stroke="black" points="209.25,-262 48.75,-262 48.75,-198 209.25,-198 209.25,-262"/>
<text text-anchor="middle" x="129" y="-250" font-family="Helvetica, Arial, sans-serif" font-size="10.00">GS391: Riken CBL Development</text>
<text text-anchor="middle" x="129" y="-239" font-family="Helvetica, Arial, sans-serif" font-size="10.00">GS395: X</text>
<text text-anchor="middle" x="129" y="-216" font-family="Helvetica, Arial, sans-serif" font-size="10.00"> 1 publication</text>
<text text-anchor="middle" x="129" y="-205" font-family="Helvetica, Arial, sans-serif" font-size="10.00">(5 genes)</text>
</a>
</g>
</g>
<!-- Ph_node_3&#45;&gt;Ph_node_1 -->
<g id="edge3" class="edge"><title>Ph_node_3&#45;&gt;Ph_node_1</title>
<path fill="none" stroke="black" d="M121.344,-197.594C112.511,-161.362 98.0176,-101.909 88.7476,-63.8832"/>
<polygon fill="black" stroke="black" points="92.0495,-62.6498 86.2806,-53.7633 85.2487,-64.3077 92.0495,-62.6498"/>
</g>
<!-- Ph_node_3&#45;&gt;Ph_node_6 -->
<g id="edge4" class="edge"><title>Ph_node_3&#45;&gt;Ph_node_6</title>
<path fill="none" stroke="black" d="M143.062,-197.594C159.424,-161.052 186.362,-100.891 203.367,-62.9129"/>
<polygon fill="black" stroke="black" points="206.572,-64.3205 207.464,-53.7633 200.183,-61.4598 206.572,-64.3205"/>
</g>
<!-- Ph_node_5 -->
<g id="node5" class="node"><title>Ph_node_5</title>
<g id="a_node5"><a xlink:href="/index.php?action=analyze&amp;cmd=intersection&amp;gsids=395,394&amp;homology=Included" xlink:title="GS395: X&#xA;GS394: INI&#xA;&#xA; 0 publications&#xA;(7 genes)" target="_parent">
<polygon fill="#ccffcc" stroke="black" points="308,-262 228,-262 228,-198 308,-198 308,-262"/>
<text text-anchor="middle" x="268" y="-250" font-family="Helvetica, Arial, sans-serif" font-size="10.00">GS395: X</text>
<text text-anchor="middle" x="268" y="-239" font-family="Helvetica, Arial, sans-serif" font-size="10.00">GS394: INI</text>
<text text-anchor="middle" x="268" y="-216" font-family="Helvetica, Arial, sans-serif" font-size="10.00"> 0 publications</text>
<text text-anchor="middle" x="268" y="-205" font-family="Helvetica, Arial, sans-serif" font-size="10.00">(7 genes)</text>
</a>
</g>
</g>
<!-- Ph_node_5&#45;&gt;Ph_node_4 -->
<g id="edge5" class="edge"><title>Ph_node_5&#45;&gt;Ph_node_4</title>
<path fill="none" stroke="black" d="M275.656,-197.594C284.489,-161.362 298.982,-101.909 308.252,-63.8832"/>
<polygon fill="black" stroke="black" points="311.751,-64.3077 310.719,-53.7633 304.95,-62.6498 311.751,-64.3077"/>
</g>
<!-- Ph_node_5&#45;&gt;Ph_node_6 -->
<g id="edge6" class="edge"><title>Ph_node_5&#45;&gt;Ph_node_6</title>
<path fill="none" stroke="black" d="M260.344,-197.594C251.511,-161.362 237.018,-101.909 227.748,-63.8832"/>
<polygon fill="black" stroke="black" points="231.05,-62.6498 225.281,-53.7633 224.249,-64.3077 231.05,-62.6498"/>
</g>
<!-- Ph_node_2 -->
<g id="node6" class="node"><title>Ph_node_2</title>
<g id="a_node6"><a xlink:href="/index.php?action=analyze&amp;cmd=intersection&amp;gsids=391,395,394&amp;homology=Included" xlink:title="GS391: Riken CBL Development&#xA;GS395: X&#xA;GS394: INI&#xA;&#xA; 1 publication&#xA;(Dynlt1c)" target="_parent">
<polygon fill="#ccffcc" stroke="red" points="278.25,-481.5 117.75,-481.5 117.75,-406.5 278.25,-406.5 278.25,-481.5"/>
<text text-anchor="middle" x="198" y="-469.5" font-family="Helvetica, Arial, sans-serif" font-size="10.00">GS391: Riken CBL Development</text>
<text text-anchor="middle" x="198" y="-458.5" font-family="Helvetica, Arial, sans-serif" font-size="10.00">GS395: X</text>
<text text-anchor="middle" x="198" y="-447.5" font-family="Helvetica, Arial, sans-serif" font-size="10.00">GS394: INI</text>
<text text-anchor="middle" x="198" y="-424.5" font-family="Helvetica, Arial, sans-serif" font-size="10.00"> 1 publication</text>
<text text-anchor="middle" x="198" y="-413.5" font-family="Helvetica, Arial, sans-serif" font-size="10.00">(Dynlt1c)</text>
</a>
</g>
</g>
<!-- Ph_node_2&#45;&gt;Ph_node_3 -->
<g id="edge1" class="edge"><title>Ph_node_2&#45;&gt;Ph_node_3</title>
<path fill="none" stroke="black" d="M185.981,-406.072C173.824,-368.72 155.07,-311.099 142.43,-272.264"/>
<polygon fill="black" stroke="black" points="145.621,-270.757 139.197,-262.331 138.964,-272.923 145.621,-270.757"/>
</g>
<!-- Ph_node_2&#45;&gt;Ph_node_5 -->
<g id="edge2" class="edge"><title>Ph_node_2&#45;&gt;Ph_node_5</title>
<path fill="none" stroke="black" d="M210.193,-406.072C222.527,-368.72 241.552,-311.099 254.375,-272.264"/>
<polygon fill="black" stroke="black" points="257.843,-272.924 257.655,-262.331 251.196,-270.73 257.843,-272.924"/>
</g>
</g>
<rect id="zoomhi" fill-opacity="0" width="1.0" height="1.0" />
</svg>
